<?xml version="1.0" encoding="UTF-8" standalone="no"?>
<!DOCTYPE svg PUBLIC "-//W3C//DTD SVG 1.1//EN"
 "http://www.w3.org/Graphics/SVG/1.1/DTD/svg11.dtd">
<!-- Generated by graphviz version 13.1.0 (20250701.0955)
 -->
<!-- Title: interface/driver_hx711_interface.h Pages: 1 -->
<svg width="526pt" height="176pt"
 viewBox="0.00 0.00 526.00 176.00" xmlns="http://www.w3.org/2000/svg" xmlns:xlink="http://www.w3.org/1999/xlink">
<g id="graph0" class="graph" transform="scale(1 1) rotate(0) translate(4 172)">
<title>interface/driver_hx711_interface.h</title>
<!-- Node1 -->
<g id="Node000001" class="node">
<title>Node1</title>
<g id="a_Node000001"><a xlink:title="driver hx711 interface header file">
<polygon fill="#999999" stroke="#666666" points="304.88,-168 193.62,-168 193.62,-136 304.88,-136 304.88,-168"/>
<text xml:space="preserve" text-anchor="start" x="201.62" y="-154.5" font-family="Helvetica,sans-Serif" font-size="10.00">interface/driver_hx711</text>
<text xml:space="preserve" text-anchor="middle" x="249.25" y="-142.5" font-family="Helvetica,sans-Serif" font-size="10.00">_interface.h</text>
</a>
</g>
</g>
<!-- Node2 -->
<g id="Node000002" class="node">
<title>Node2</title>
<g id="a_Node000002"><a xlink:href="driver__hx711__basic_8h.html" target="_top" xlink:title="driver hx711 basic header file">
<polygon fill="white" stroke="#666666" points="110.5,-100 0,-100 0,-68 110.5,-68 110.5,-100"/>
<text xml:space="preserve" text-anchor="start" x="8" y="-86.5" font-family="Helvetica,sans-Serif" font-size="10.00">example/driver_hx711</text>
<text xml:space="preserve" text-anchor="middle" x="55.25" y="-74.5" font-family="Helvetica,sans-Serif" font-size="10.00">_basic.h</text>
</a>
</g>
</g>
<!-- Node1&#45;&gt;Node2 -->
<g id="edge1_Node000001_Node000002" class="edge">
<title>Node1&#45;&gt;Node2</title>
<g id="a_edge1_Node000001_Node000002"><a xlink:title=" ">
<path fill="none" stroke="#63b8ff" d="M192.87,-131.82C163.6,-121.86 128.3,-109.85 100.79,-100.49"/>
<polygon fill="#63b8ff" stroke="#63b8ff" points="191.74,-135.13 202.33,-135.04 193.99,-128.5 191.74,-135.13"/>
</a>
</g>
</g>
<!-- Node4 -->
<g id="Node000004" class="node">
<title>Node4</title>
<g id="a_Node000004"><a xlink:href="driver__hx711__interface__template_8c.html" target="_top" xlink:title="driver hx711 interface template source file">
<polygon fill="white" stroke="#666666" points="239.88,-100 128.62,-100 128.62,-68 239.88,-68 239.88,-100"/>
<text xml:space="preserve" text-anchor="start" x="136.62" y="-86.5" font-family="Helvetica,sans-Serif" font-size="10.00">interface/driver_hx711</text>
<text xml:space="preserve" text-anchor="middle" x="184.25" y="-74.5" font-family="Helvetica,sans-Serif" font-size="10.00">_interface_template.c</text>
</a>
</g>
</g>
<!-- Node1&#45;&gt;Node4 -->
<g id="edge3_Node000001_Node000004" class="edge">
<title>Node1&#45;&gt;Node4</title>
<g id="a_edge3_Node000001_Node000004"><a xlink:title=" ">
<path fill="none" stroke="#63b8ff" d="M226.31,-127.71C217.33,-118.59 207.27,-108.37 199.24,-100.22"/>
<polygon fill="#63b8ff" stroke="#63b8ff" points="223.6,-129.95 233.11,-134.61 228.59,-125.03 223.6,-129.95"/>
</a>
</g>
</g>
<!-- Node5 -->
<g id="Node000005" class="node">
<title>Node5</title>
<g id="a_Node000005"><a xlink:href="driver__hx711__read__test_8h.html" target="_top" xlink:title="driver hx711 read test header file">
<polygon fill="white" stroke="#666666" points="372.38,-100 258.12,-100 258.12,-68 372.38,-68 372.38,-100"/>
<text xml:space="preserve" text-anchor="start" x="266.12" y="-86.5" font-family="Helvetica,sans-Serif" font-size="10.00">test/driver_hx711_read</text>
<text xml:space="preserve" text-anchor="middle" x="315.25" y="-74.5" font-family="Helvetica,sans-Serif" font-size="10.00">_test.h</text>
</a>
</g>
</g>
<!-- Node1&#45;&gt;Node5 -->
<g id="edge4_Node000001_Node000005" class="edge">
<title>Node1&#45;&gt;Node5</title>
<g id="a_edge4_Node000001_Node000005"><a xlink:title=" ">
<path fill="none" stroke="#63b8ff" d="M272.54,-127.71C281.66,-118.59 291.88,-108.37 300.03,-100.22"/>
<polygon fill="#63b8ff" stroke="#63b8ff" points="270.22,-125.08 265.63,-134.62 275.17,-130.03 270.22,-125.08"/>
</a>
</g>
</g>
<!-- Node7 -->
<g id="Node000007" class="node">
<title>Node7</title>
<g id="a_Node000007"><a xlink:href="driver__hx711__register__test_8h.html" target="_top" xlink:title="driver hx711 register test header file">
<polygon fill="white" stroke="#666666" points="518.12,-100 390.38,-100 390.38,-68 518.12,-68 518.12,-100"/>
<text xml:space="preserve" text-anchor="start" x="398.38" y="-86.5" font-family="Helvetica,sans-Serif" font-size="10.00">test/driver_hx711_register</text>
<text xml:space="preserve" text-anchor="middle" x="454.25" y="-74.5" font-family="Helvetica,sans-Serif" font-size="10.00">_test.h</text>
</a>
</g>
</g>
<!-- Node1&#45;&gt;Node7 -->
<g id="edge6_Node000001_Node000007" class="edge">
<title>Node1&#45;&gt;Node7</title>
<g id="a_edge6_Node000001_Node000007"><a xlink:title=" ">
<path fill="none" stroke="#63b8ff" d="M308.01,-132.08C339.1,-122.07 376.8,-109.94 406.13,-100.49"/>
<polygon fill="#63b8ff" stroke="#63b8ff" points="307.2,-128.67 298.75,-135.06 309.35,-135.33 307.2,-128.67"/>
</a>
</g>
</g>
<!-- Node3 -->
<g id="Node000003" class="node">
<title>Node3</title>
<g id="a_Node000003"><a xlink:href="driver__hx711__basic_8c.html" target="_top" xlink:title="driver hx711 basic source file">
<polygon fill="white" stroke="#666666" points="110.5,-32 0,-32 0,0 110.5,0 110.5,-32"/>
<text xml:space="preserve" text-anchor="start" x="8" y="-18.5" font-family="Helvetica,sans-Serif" font-size="10.00">example/driver_hx711</text>
<text xml:space="preserve" text-anchor="middle" x="55.25" y="-6.5" font-family="Helvetica,sans-Serif" font-size="10.00">_basic.c</text>
</a>
</g>
</g>
<!-- Node2&#45;&gt;Node3 -->
<g id="edge2_Node000002_Node000003" class="edge">
<title>Node2&#45;&gt;Node3</title>
<g id="a_edge2_Node000002_Node000003"><a xlink:title=" ">
<path fill="none" stroke="#63b8ff" d="M55.25,-56.31C55.25,-48.12 55.25,-39.38 55.25,-32.22"/>
<polygon fill="#63b8ff" stroke="#63b8ff" points="51.75,-56.18 55.25,-66.18 58.75,-56.18 51.75,-56.18"/>
</a>
</g>
</g>
<!-- Node6 -->
<g id="Node000006" class="node">
<title>Node6</title>
<g id="a_Node000006"><a xlink:href="driver__hx711__read__test_8c.html" target="_top" xlink:title="driver hx711 read test source file">
<polygon fill="white" stroke="#666666" points="372.38,-32 258.12,-32 258.12,0 372.38,0 372.38,-32"/>
<text xml:space="preserve" text-anchor="start" x="266.12" y="-18.5" font-family="Helvetica,sans-Serif" font-size="10.00">test/driver_hx711_read</text>
<text xml:space="preserve" text-anchor="middle" x="315.25" y="-6.5" font-family="Helvetica,sans-Serif" font-size="10.00">_test.c</text>
</a>
</g>
</g>
<!-- Node5&#45;&gt;Node6 -->
<g id="edge5_Node000005_Node000006" class="edge">
<title>Node5&#45;&gt;Node6</title>
<g id="a_edge5_Node000005_Node000006"><a xlink:title=" ">
<path fill="none" stroke="#63b8ff" d="M315.25,-56.31C315.25,-48.12 315.25,-39.38 315.25,-32.22"/>
<polygon fill="#63b8ff" stroke="#63b8ff" points="311.75,-56.18 315.25,-66.18 318.75,-56.18 311.75,-56.18"/>
</a>
</g>
</g>
<!-- Node8 -->
<g id="Node000008" class="node">
<title>Node8</title>
<g id="a_Node000008"><a xlink:href="driver__hx711__register__test_8c.html" target="_top" xlink:title="driver hx711 register test source file">
<polygon fill="white" stroke="#666666" points="518.12,-32 390.38,-32 390.38,0 518.12,0 518.12,-32"/>
<text xml:space="preserve" text-anchor="start" x="398.38" y="-18.5" font-family="Helvetica,sans-Serif" font-size="10.00">test/driver_hx711_register</text>
<text xml:space="preserve" text-anchor="middle" x="454.25" y="-6.5" font-family="Helvetica,sans-Serif" font-size="10.00">_test.c</text>
</a>
</g>
</g>
<!-- Node7&#45;&gt;Node8 -->
<g id="edge7_Node000007_Node000008" class="edge">
<title>Node7&#45;&gt;Node8</title>
<g id="a_edge7_Node000007_Node000008"><a xlink:title=" ">
<path fill="none" stroke="#63b8ff" d="M454.25,-56.31C454.25,-48.12 454.25,-39.38 454.25,-32.22"/>
<polygon fill="#63b8ff" stroke="#63b8ff" points="450.75,-56.18 454.25,-66.18 457.75,-56.18 450.75,-56.18"/>
</a>
</g>
</g>
</g>
</svg>
