<?xml version="1.0" encoding="UTF-8" standalone="no"?>
<!DOCTYPE svg PUBLIC "-//W3C//DTD SVG 1.1//EN"
 "http://www.w3.org/Graphics/SVG/1.1/DTD/svg11.dtd">
<!-- Generated by graphviz version 13.1.0 (20250701.0955)
 -->
<!-- Title: hx711_basic_init Pages: 1 -->
<svg width="268pt" height="532pt"
 viewBox="0.00 0.00 268.00 532.00" xmlns="http://www.w3.org/2000/svg" xmlns:xlink="http://www.w3.org/1999/xlink">
<g id="graph0" class="graph" transform="scale(1 1) rotate(0) translate(4 528)">
<title>hx711_basic_init</title>
<!-- Node1 -->
<g id="Node000001" class="node">
<title>Node1</title>
<g id="a_Node000001"><a xlink:title="basic example init">
<polygon fill="#999999" stroke="#666666" points="88,-272 0,-272 0,-252 88,-252 88,-272"/>
<text xml:space="preserve" text-anchor="middle" x="44" y="-258.5" font-family="Helvetica,sans-Serif" font-size="10.00">hx711_basic_init</text>
</a>
</g>
</g>
<!-- Node2 -->
<g id="Node000002" class="node">
<title>Node2</title>
<g id="a_Node000002"><a xlink:href="group__hx711__base__driver.html#ga0d9ccc04e9b341fd9667f199ba8aaf0f" target="_top" xlink:title="close the chip">
<polygon fill="white" stroke="#666666" points="227,-524 157,-524 157,-504 227,-504 227,-524"/>
<text xml:space="preserve" text-anchor="middle" x="192" y="-510.5" font-family="Helvetica,sans-Serif" font-size="10.00">hx711_deinit</text>
</a>
</g>
</g>
<!-- Node1&#45;&gt;Node2 -->
<g id="edge1_Node000001_Node000002" class="edge">
<title>Node1&#45;&gt;Node2</title>
<g id="a_edge1_Node000001_Node000002"><a xlink:title=" ">
<path fill="none" stroke="#63b8ff" d="M45.26,-272.13C46.77,-308.13 56.82,-431.14 124,-495 130.08,-500.78 137.8,-504.83 145.81,-507.65"/>
<polygon fill="#63b8ff" stroke="#63b8ff" points="144.76,-510.99 155.34,-510.38 146.68,-504.26 144.76,-510.99"/>
</a>
</g>
</g>
<!-- Node3 -->
<g id="Node000003" class="node">
<title>Node3</title>
<g id="a_Node000003"><a xlink:href="group__hx711__base__driver.html#ga9cee1195353158b7cb1f148cb8d4bced" target="_top" xlink:title="initialize the chip">
<polygon fill="white" stroke="#666666" points="221.75,-486 162.25,-486 162.25,-466 221.75,-466 221.75,-486"/>
<text xml:space="preserve" text-anchor="middle" x="192" y="-472.5" font-family="Helvetica,sans-Serif" font-size="10.00">hx711_init</text>
</a>
</g>
</g>
<!-- Node1&#45;&gt;Node3 -->
<g id="edge2_Node000001_Node000003" class="edge">
<title>Node1&#45;&gt;Node3</title>
<g id="a_edge2_Node000001_Node000003"><a xlink:title=" ">
<path fill="none" stroke="#63b8ff" d="M46.04,-272.26C49.85,-304.55 66.08,-405.05 124,-457 131.44,-463.67 141.06,-468.02 150.68,-470.84"/>
<polygon fill="#63b8ff" stroke="#63b8ff" points="149.82,-474.24 160.36,-473.15 151.45,-467.43 149.82,-474.24"/>
</a>
</g>
</g>
<!-- Node4 -->
<g id="Node000004" class="node">
<title>Node4</title>
<g id="a_Node000004"><a xlink:href="group__hx711__interface__driver.html#ga3dae6d97fb387f6252915538dc9bfa71" target="_top" xlink:title="interface bus deinit">
<polygon fill="white" stroke="#666666" points="244.62,-448 139.38,-448 139.38,-416 244.62,-416 244.62,-448"/>
<text xml:space="preserve" text-anchor="start" x="147.38" y="-434.5" font-family="Helvetica,sans-Serif" font-size="10.00">hx711_interface_bus</text>
<text xml:space="preserve" text-anchor="middle" x="192" y="-422.5" font-family="Helvetica,sans-Serif" font-size="10.00">_deinit</text>
</a>
</g>
</g>
<!-- Node1&#45;&gt;Node4 -->
<g id="edge3_Node000001_Node000004" class="edge">
<title>Node1&#45;&gt;Node4</title>
<g id="a_edge3_Node000001_Node000004"><a xlink:title=" ">
<path fill="none" stroke="#63b8ff" d="M47.87,-272.39C55.65,-298.68 79.61,-368.49 124,-407 125.69,-408.46 127.47,-409.85 129.32,-411.15"/>
<polygon fill="#63b8ff" stroke="#63b8ff" points="127.43,-414.1 137.8,-416.26 131.04,-408.1 127.43,-414.1"/>
</a>
</g>
</g>
<!-- Node5 -->
<g id="Node000005" class="node">
<title>Node5</title>
<g id="a_Node000005"><a xlink:href="group__hx711__interface__driver.html#ga5024d6ada6f8e0ed9c2ac6b4687566f0" target="_top" xlink:title="interface bus init">
<polygon fill="white" stroke="#666666" points="253.62,-398 130.38,-398 130.38,-378 253.62,-378 253.62,-398"/>
<text xml:space="preserve" text-anchor="middle" x="192" y="-384.5" font-family="Helvetica,sans-Serif" font-size="10.00">hx711_interface_bus_init</text>
</a>
</g>
</g>
<!-- Node1&#45;&gt;Node5 -->
<g id="edge4_Node000001_Node000005" class="edge">
<title>Node1&#45;&gt;Node5</title>
<g id="a_edge4_Node000001_Node000005"><a xlink:title=" ">
<path fill="none" stroke="#63b8ff" d="M49.69,-272.3C59.98,-293.7 86.6,-343.11 124,-369 125.94,-370.34 127.98,-371.59 130.08,-372.76"/>
<polygon fill="#63b8ff" stroke="#63b8ff" points="128.42,-375.84 138.95,-376.93 131.4,-369.51 128.42,-375.84"/>
</a>
</g>
</g>
<!-- Node6 -->
<g id="Node000006" class="node">
<title>Node6</title>
<g id="a_Node000006"><a xlink:href="group__hx711__interface__driver.html#ga47c12e8b5ca5eeceefaaa18fa2fa94bd" target="_top" xlink:title="interface bus read">
<polygon fill="white" stroke="#666666" points="256.62,-360 127.38,-360 127.38,-340 256.62,-340 256.62,-360"/>
<text xml:space="preserve" text-anchor="middle" x="192" y="-346.5" font-family="Helvetica,sans-Serif" font-size="10.00">hx711_interface_bus_read</text>
</a>
</g>
</g>
<!-- Node1&#45;&gt;Node6 -->
<g id="edge5_Node000001_Node000006" class="edge">
<title>Node1&#45;&gt;Node6</title>
<g id="a_edge5_Node000001_Node000006"><a xlink:title=" ">
<path fill="none" stroke="#63b8ff" d="M54.14,-272.5C67.84,-287.61 95.19,-315.37 124,-331 127.04,-332.65 130.23,-334.16 133.51,-335.56"/>
<polygon fill="#63b8ff" stroke="#63b8ff" points="132.17,-338.79 142.76,-339.07 134.65,-332.25 132.17,-338.79"/>
</a>
</g>
</g>
<!-- Node7 -->
<g id="Node000007" class="node">
<title>Node7</title>
<g id="a_Node000007"><a xlink:href="group__hx711__interface__driver.html#gab77a9969c859e311c42e9162a9df138f" target="_top" xlink:title="interface clock deinit">
<polygon fill="white" stroke="#666666" points="248.38,-322 135.62,-322 135.62,-290 248.38,-290 248.38,-322"/>
<text xml:space="preserve" text-anchor="start" x="143.62" y="-308.5" font-family="Helvetica,sans-Serif" font-size="10.00">hx711_interface_clock</text>
<text xml:space="preserve" text-anchor="middle" x="192" y="-296.5" font-family="Helvetica,sans-Serif" font-size="10.00">_deinit</text>
</a>
</g>
</g>
<!-- Node1&#45;&gt;Node7 -->
<g id="edge6_Node000001_Node000007" class="edge">
<title>Node1&#45;&gt;Node7</title>
<g id="a_edge6_Node000001_Node000007"><a xlink:title=" ">
<path fill="none" stroke="#63b8ff" d="M79.6,-272.43C93.37,-276.58 109.69,-281.5 125.53,-286.27"/>
<polygon fill="#63b8ff" stroke="#63b8ff" points="124.35,-289.57 134.94,-289.1 126.37,-282.87 124.35,-289.57"/>
</a>
</g>
</g>
<!-- Node8 -->
<g id="Node000008" class="node">
<title>Node8</title>
<g id="a_Node000008"><a xlink:href="group__hx711__interface__driver.html#ga4f135b2c91d607bd54a5981039cd1503" target="_top" xlink:title="interface clock init">
<polygon fill="white" stroke="#666666" points="257.38,-272 126.62,-272 126.62,-252 257.38,-252 257.38,-272"/>
<text xml:space="preserve" text-anchor="middle" x="192" y="-258.5" font-family="Helvetica,sans-Serif" font-size="10.00">hx711_interface_clock_init</text>
</a>
</g>
</g>
<!-- Node1&#45;&gt;Node8 -->
<g id="edge7_Node000001_Node000008" class="edge">
<title>Node1&#45;&gt;Node8</title>
<g id="a_edge7_Node000001_Node000008"><a xlink:title=" ">
<path fill="none" stroke="#63b8ff" d="M88.41,-262C96.74,-262 105.7,-262 114.72,-262"/>
<polygon fill="#63b8ff" stroke="#63b8ff" points="114.62,-265.5 124.62,-262 114.62,-258.5 114.62,-265.5"/>
</a>
</g>
</g>
<!-- Node9 -->
<g id="Node000009" class="node">
<title>Node9</title>
<g id="a_Node000009"><a xlink:href="group__hx711__interface__driver.html#ga0f2cef7c16afc2052c4177a493fdf46d" target="_top" xlink:title="interface clock write">
<polygon fill="white" stroke="#666666" points="248.38,-234 135.62,-234 135.62,-202 248.38,-202 248.38,-234"/>
<text xml:space="preserve" text-anchor="start" x="143.62" y="-220.5" font-family="Helvetica,sans-Serif" font-size="10.00">hx711_interface_clock</text>
<text xml:space="preserve" text-anchor="middle" x="192" y="-208.5" font-family="Helvetica,sans-Serif" font-size="10.00">_write</text>
</a>
</g>
</g>
<!-- Node1&#45;&gt;Node9 -->
<g id="edge8_Node000001_Node000009" class="edge">
<title>Node1&#45;&gt;Node9</title>
<g id="a_edge8_Node000001_Node000009"><a xlink:title=" ">
<path fill="none" stroke="#63b8ff" d="M79.6,-251.57C93.37,-247.42 109.69,-242.5 125.53,-237.73"/>
<polygon fill="#63b8ff" stroke="#63b8ff" points="126.37,-241.13 134.94,-234.9 124.35,-234.43 126.37,-241.13"/>
</a>
</g>
</g>
<!-- Node10 -->
<g id="Node000010" class="node">
<title>Node10</title>
<g id="a_Node000010"><a xlink:href="group__hx711__interface__driver.html#ga96df33e075b4509b7b0cae006538a572" target="_top" xlink:title="interface print format data">
<polygon fill="white" stroke="#666666" points="249.88,-184 134.12,-184 134.12,-152 249.88,-152 249.88,-184"/>
<text xml:space="preserve" text-anchor="start" x="142.12" y="-170.5" font-family="Helvetica,sans-Serif" font-size="10.00">hx711_interface_debug</text>
<text xml:space="preserve" text-anchor="middle" x="192" y="-158.5" font-family="Helvetica,sans-Serif" font-size="10.00">_print</text>
</a>
</g>
</g>
<!-- Node1&#45;&gt;Node10 -->
<g id="edge9_Node000001_Node000010" class="edge">
<title>Node1&#45;&gt;Node10</title>
<g id="a_edge9_Node000001_Node000010"><a xlink:title=" ">
<path fill="none" stroke="#63b8ff" d="M54.31,-251.8C68.23,-237.08 95.84,-209.78 124,-193 126.04,-191.78 128.15,-190.61 130.31,-189.48"/>
<polygon fill="#63b8ff" stroke="#63b8ff" points="131.81,-192.64 139.31,-185.15 128.78,-186.33 131.81,-192.64"/>
</a>
</g>
</g>
<!-- Node11 -->
<g id="Node000011" class="node">
<title>Node11</title>
<g id="a_Node000011"><a xlink:href="group__hx711__interface__driver.html#ga94618244bf9bc0b8be9b7722d7ffd2f7" target="_top" xlink:title="interface delay us">
<polygon fill="white" stroke="#666666" points="256.25,-134 127.75,-134 127.75,-114 256.25,-114 256.25,-134"/>
<text xml:space="preserve" text-anchor="middle" x="192" y="-120.5" font-family="Helvetica,sans-Serif" font-size="10.00">hx711_interface_delay_us</text>
</a>
</g>
</g>
<!-- Node1&#45;&gt;Node11 -->
<g id="edge10_Node000001_Node000011" class="edge">
<title>Node1&#45;&gt;Node11</title>
<g id="a_edge10_Node000001_Node000011"><a xlink:title=" ">
<path fill="none" stroke="#63b8ff" d="M48.94,-251.61C58.26,-228.42 83.94,-172.24 124,-143 125.76,-141.72 127.6,-140.52 129.51,-139.4"/>
<polygon fill="#63b8ff" stroke="#63b8ff" points="130.7,-142.72 138.11,-135.14 127.6,-136.44 130.7,-142.72"/>
</a>
</g>
</g>
<!-- Node12 -->
<g id="Node000012" class="node">
<title>Node12</title>
<g id="a_Node000012"><a xlink:href="group__hx711__interface__driver.html#gada538abd57b6281648e720470a011d7a" target="_top" xlink:title="interface disable the interrupt">
<polygon fill="white" stroke="#666666" points="260,-96 124,-96 124,-76 260,-76 260,-96"/>
<text xml:space="preserve" text-anchor="middle" x="192" y="-82.5" font-family="Helvetica,sans-Serif" font-size="10.00">hx711_interface_disable_irq</text>
</a>
</g>
</g>
<!-- Node1&#45;&gt;Node12 -->
<g id="edge11_Node000001_Node000012" class="edge">
<title>Node1&#45;&gt;Node12</title>
<g id="a_edge11_Node000001_Node000012"><a xlink:title=" ">
<path fill="none" stroke="#63b8ff" d="M47.13,-251.77C53.5,-223.8 75.07,-145.42 124,-105 125.31,-103.92 126.68,-102.9 128.1,-101.93"/>
<polygon fill="#63b8ff" stroke="#63b8ff" points="129.69,-105.05 136.71,-97.12 126.27,-98.94 129.69,-105.05"/>
</a>
</g>
</g>
<!-- Node13 -->
<g id="Node000013" class="node">
<title>Node13</title>
<g id="a_Node000013"><a xlink:href="group__hx711__interface__driver.html#ga703e4b56d42d46f1badac953c4c2a212" target="_top" xlink:title="interface enable the interrupt">
<polygon fill="white" stroke="#666666" points="258.88,-58 125.12,-58 125.12,-38 258.88,-38 258.88,-58"/>
<text xml:space="preserve" text-anchor="middle" x="192" y="-44.5" font-family="Helvetica,sans-Serif" font-size="10.00">hx711_interface_enable_irq</text>
</a>
</g>
</g>
<!-- Node1&#45;&gt;Node13 -->
<g id="edge12_Node000001_Node000013" class="edge">
<title>Node1&#45;&gt;Node13</title>
<g id="a_edge12_Node000001_Node000013"><a xlink:title=" ">
<path fill="none" stroke="#63b8ff" d="M46.04,-251.74C49.85,-219.45 66.08,-118.95 124,-67 125.09,-66.02 126.22,-65.1 127.4,-64.22"/>
<polygon fill="#63b8ff" stroke="#63b8ff" points="129.04,-67.32 135.78,-59.15 125.41,-61.33 129.04,-67.32"/>
</a>
</g>
</g>
<!-- Node14 -->
<g id="Node000014" class="node">
<title>Node14</title>
<g id="a_Node000014"><a xlink:href="group__hx711__base__driver.html#gacc02ca2f4b1240673f873b317cd692df" target="_top" xlink:title="set the chip mode">
<polygon fill="white" stroke="#666666" points="236.75,-20 147.25,-20 147.25,0 236.75,0 236.75,-20"/>
<text xml:space="preserve" text-anchor="middle" x="192" y="-6.5" font-family="Helvetica,sans-Serif" font-size="10.00">hx711_set_mode</text>
</a>
</g>
</g>
<!-- Node1&#45;&gt;Node14 -->
<g id="edge13_Node000001_Node000014" class="edge">
<title>Node1&#45;&gt;Node14</title>
<g id="a_edge13_Node000001_Node000014"><a xlink:title=" ">
<path fill="none" stroke="#63b8ff" d="M45.26,-251.87C46.77,-215.87 56.82,-92.86 124,-29 127.7,-25.48 132,-22.61 136.6,-20.26"/>
<polygon fill="#63b8ff" stroke="#63b8ff" points="137.76,-23.58 145.65,-16.5 135.07,-17.11 137.76,-23.58"/>
</a>
</g>
</g>
</g>
</svg>
