<?xml version="1.0" encoding="UTF-8" standalone="no"?>
<!DOCTYPE svg PUBLIC "-//W3C//DTD SVG 1.1//EN"
 "http://www.w3.org/Graphics/SVG/1.1/DTD/svg11.dtd">
<!-- Generated by graphviz version 13.1.0 (20250701.0955)
 -->
<!-- Title: hx711 driver function Pages: 1 -->
<svg width="280pt" height="204pt"
 viewBox="0.00 0.00 280.00 204.00" xmlns="http://www.w3.org/2000/svg" xmlns:xlink="http://www.w3.org/1999/xlink">
<g id="graph0" class="graph" transform="scale(1 1) rotate(0) translate(4 200)">
<title>hx711 driver function</title>
<!-- Node3 -->
<g id="Node000003" class="node">
<title>Node3</title>
<g id="a_Node000003"><a xlink:href="group__hx711__base__driver.html" target="_top" xlink:title="hx711 base driver modules">
<polygon fill="white" stroke="#666666" points="272,-196 142,-196 142,-176 272,-176 272,-196"/>
<text xml:space="preserve" text-anchor="middle" x="207" y="-182.5" font-family="Helvetica,sans-Serif" font-size="10.00">hx711 base driver function</text>
</a>
</g>
</g>
<!-- Node1 -->
<g id="Node000001" class="node">
<title>Node1</title>
<g id="a_Node000001"><a xlink:title="hx711 driver modules">
<polygon fill="#999999" stroke="#666666" points="106,-102 0,-102 0,-82 106,-82 106,-102"/>
<text xml:space="preserve" text-anchor="middle" x="53" y="-88.5" font-family="Helvetica,sans-Serif" font-size="10.00">hx711 driver function</text>
</a>
</g>
</g>
<!-- Node1&#45;&gt;Node3 -->
<g id="edge2" class="edge">
<title>Node1&#45;&gt;Node3</title>
<path fill="none" stroke="black" d="M70.97,-110.33C87.58,-127.26 114.36,-152 142,-167 148.21,-170.37 155.1,-173.22 161.99,-175.59"/>
<polygon fill="black" stroke="black" points="73.76,-108.17 64.31,-103.37 68.7,-113.02 73.76,-108.17"/>
</g>
<!-- Node5 -->
<g id="Node000005" class="node">
<title>Node5</title>
<g id="a_Node000005"><a xlink:href="group__hx711__example__driver.html" target="_top" xlink:title="hx711 example driver modules">
<polygon fill="white" stroke="#666666" points="261.12,-158 152.88,-158 152.88,-126 261.12,-126 261.12,-158"/>
<text xml:space="preserve" text-anchor="start" x="160.88" y="-144.5" font-family="Helvetica,sans-Serif" font-size="10.00">hx711 example driver</text>
<text xml:space="preserve" text-anchor="middle" x="207" y="-132.5" font-family="Helvetica,sans-Serif" font-size="10.00"> function</text>
</a>
</g>
</g>
<!-- Node1&#45;&gt;Node5 -->
<g id="edge4" class="edge">
<title>Node1&#45;&gt;Node5</title>
<path fill="none" stroke="black" d="M96.58,-106.01C115.02,-112.07 136.73,-119.21 155.93,-125.53"/>
<polygon fill="black" stroke="black" points="97.89,-102.75 87.3,-102.95 95.71,-109.4 97.89,-102.75"/>
</g>
<!-- Node4 -->
<g id="Node000004" class="node">
<title>Node4</title>
<g id="a_Node000004"><a xlink:href="group__hx711__interface__driver.html" target="_top" xlink:title="hx711 interface driver modules">
<polygon fill="white" stroke="#666666" points="261.5,-108 152.5,-108 152.5,-76 261.5,-76 261.5,-108"/>
<text xml:space="preserve" text-anchor="start" x="160.5" y="-94.5" font-family="Helvetica,sans-Serif" font-size="10.00">hx711 interface driver</text>
<text xml:space="preserve" text-anchor="middle" x="207" y="-82.5" font-family="Helvetica,sans-Serif" font-size="10.00"> function</text>
</a>
</g>
</g>
<!-- Node1&#45;&gt;Node4 -->
<g id="edge3" class="edge">
<title>Node1&#45;&gt;Node4</title>
<path fill="none" stroke="black" d="M117.6,-92C129.05,-92 140.89,-92 152.04,-92"/>
<polygon fill="black" stroke="black" points="117.82,-88.5 107.82,-92 117.82,-95.5 117.82,-88.5"/>
</g>
<!-- Node2 -->
<g id="Node000002" class="node">
<title>Node2</title>
<g id="a_Node000002"><a xlink:href="group__hx711__link__driver.html" target="_top" xlink:title="hx711 link driver modules">
<polygon fill="white" stroke="#666666" points="269,-58 145,-58 145,-38 269,-38 269,-58"/>
<text xml:space="preserve" text-anchor="middle" x="207" y="-44.5" font-family="Helvetica,sans-Serif" font-size="10.00">hx711 link driver function</text>
</a>
</g>
</g>
<!-- Node1&#45;&gt;Node2 -->
<g id="edge1" class="edge">
<title>Node1&#45;&gt;Node2</title>
<path fill="none" stroke="black" d="M100.92,-78.42C123.16,-71.98 149.32,-64.41 169.97,-58.43"/>
<polygon fill="black" stroke="black" points="100.11,-75.01 91.48,-81.15 102.05,-81.73 100.11,-75.01"/>
</g>
<!-- Node6 -->
<g id="Node000006" class="node">
<title>Node6</title>
<g id="a_Node000006"><a xlink:href="group__hx711__test__driver.html" target="_top" xlink:title="hx711 test driver modules">
<polygon fill="white" stroke="#666666" points="269.75,-20 144.25,-20 144.25,0 269.75,0 269.75,-20"/>
<text xml:space="preserve" text-anchor="middle" x="207" y="-6.5" font-family="Helvetica,sans-Serif" font-size="10.00">hx711 test driver function</text>
</a>
</g>
</g>
<!-- Node1&#45;&gt;Node6 -->
<g id="edge5" class="edge">
<title>Node1&#45;&gt;Node6</title>
<path fill="none" stroke="black" d="M74.26,-74.49C91.34,-60.5 116.94,-41.26 142,-29 148.77,-25.69 156.22,-22.84 163.58,-20.42"/>
<polygon fill="black" stroke="black" points="72.29,-71.57 66.87,-80.67 76.78,-76.94 72.29,-71.57"/>
</g>
</g>
</svg>
